<svg width="20" height="22" viewBox="0 0 20 22" fill="none" xmlns="http://www.w3.org/2000/svg">
<path d="M0.133333 10.3667C0.212658 10.1621 0.3316 9.97516 0.483335 9.81665L8.81667 1.48332C8.97206 1.32792 9.15655 1.20465 9.35958 1.12055C9.56262 1.03645 9.78024 0.993164 10 0.993164C10.4438 0.993164 10.8695 1.16948 11.1833 1.48332C11.3387 1.63871 11.462 1.8232 11.5461 2.02623C11.6302 2.22927 11.6735 2.44688 11.6735 2.66665C11.6735 3.11049 11.4972 3.53614 11.1833 3.84998L5.68333 9.33332H18.3333C18.7754 9.33332 19.1993 9.50891 19.5118 9.82147C19.8244 10.134 20 10.558 20 11C20 11.442 19.8244 11.8659 19.5118 12.1785C19.1993 12.4911 18.7754 12.6667 18.3333 12.6667H5.68333L11.1833 18.15C11.3395 18.3049 11.4635 18.4893 11.5482 18.6924C11.6328 18.8955 11.6763 19.1133 11.6763 19.3333C11.6763 19.5533 11.6328 19.7712 11.5482 19.9743C11.4635 20.1774 11.3395 20.3617 11.1833 20.5166C11.0284 20.6729 10.8441 20.7969 10.641 20.8815C10.4379 20.9661 10.22 21.0096 10 21.0096C9.77998 21.0096 9.56214 20.9661 9.35904 20.8815C9.15594 20.7969 8.97161 20.6729 8.81667 20.5166L0.483335 12.1833C0.3316 12.0248 0.212658 11.8379 0.133333 11.6333C-0.0333633 11.2275 -0.0333633 10.7724 0.133333 10.3667Z" fill="#505050"/>
</svg>
