<svg width="51" height="50" viewBox="0 0 51 50" fill="none" xmlns="http://www.w3.org/2000/svg">
<rect x="0.5" width="50" height="50" rx="25" fill="#FFE0E0"/>
<path d="M36.1875 27.327L28.1625 13.7873C27.525 12.7172 26.55 12.1123 25.5 12.1123C24.4125 12.1123 23.4375 12.7172 22.8375 13.7873L14.8125 27.327C14.0625 28.5832 13.95 30.2117 14.5125 31.6075C15.075 33.0034 16.2 33.8874 17.475 33.8874H33.525C34.8 33.8874 35.925 33.0034 36.4875 31.6075C37.05 30.2582 36.9375 28.5832 36.1875 27.327ZM34.9875 30.677C34.6875 31.3749 34.1625 31.7936 33.525 31.7936H17.475C16.8375 31.7936 16.3125 31.3749 16.0125 30.677C15.75 29.9791 15.7875 29.1881 16.1625 28.5832L24.1875 15.0436C24.4875 14.5318 24.975 14.2061 25.5 14.2061C26.025 14.2061 26.5125 14.4852 26.8125 15.0436L34.8375 28.5832C35.2125 29.1881 35.25 29.9791 34.9875 30.677Z" fill="#D30000"/>
<path d="M25.4992 18.8123C25.0492 18.8123 24.6367 19.2775 24.6367 19.8824V24.954C24.6367 25.5123 25.0117 26.0241 25.4992 26.0241C25.9867 26.0241 26.3617 25.5588 26.3617 24.954V19.8359C26.3617 19.2775 25.9492 18.8123 25.4992 18.8123Z" fill="#D30000"/>
<path d="M25.4992 27.0946C25.0492 27.0946 24.6367 27.5599 24.6367 28.1647V28.3974C24.6367 28.9557 25.0117 29.4675 25.4992 29.4675C25.9867 29.4675 26.3617 29.0023 26.3617 28.3974V28.1182C26.3617 27.5599 25.9492 27.0946 25.4992 27.0946Z" fill="#D30000"/>
</svg>
