<svg width="32" height="36" viewBox="0 0 32 36" fill="none" xmlns="http://www.w3.org/2000/svg">
<path d="M6.7145 3.02165C7.16844 2.50152 7.11478 1.71189 6.59465 1.25795C6.07452 0.804014 5.28489 0.857671 4.83095 1.3778L2.67794 3.84475C1.45667 5.24409 0.766284 7.02828 0.727556 8.88521L0.63309 13.4146C0.618695 14.1048 1.16655 14.676 1.85675 14.6904C2.54696 14.7048 3.11815 14.157 3.13255 13.4668L3.22701 8.93734C3.25351 7.66681 3.72588 6.44605 4.56148 5.4886L6.7145 3.02165Z" fill="#111111"/>
<path fill-rule="evenodd" clip-rule="evenodd" d="M6.39483 11.8346C6.62633 8.13339 9.69566 5.25004 13.4041 5.25004H14.3331V4.00004C14.3331 3.07957 15.0793 2.33338 15.9998 2.33338C16.9203 2.33338 17.6665 3.07957 17.6665 4.00004V5.25004H18.5955C22.3039 5.25004 25.3733 8.1334 25.6048 11.8346L25.9731 17.7237C26.1135 19.969 26.8673 22.1328 28.1525 23.9793C29.3136 25.6478 28.2799 27.9521 26.2617 28.1943L20.5831 28.8757V30.6667C20.5831 33.198 18.5311 35.25 15.9998 35.25C13.4685 35.25 11.4165 33.198 11.4165 30.6667V28.8757L5.73793 28.1943C3.71971 27.9521 2.68601 25.6478 3.84715 23.9793C5.13225 22.1328 5.88606 19.969 6.0265 17.7237L6.39483 11.8346ZM13.4041 7.75004C11.0158 7.75004 9.03905 9.60699 8.88996 11.9907L8.52162 17.8798C8.35263 20.5817 7.44554 23.1854 5.89913 25.4074C5.8152 25.528 5.88991 25.6946 6.03579 25.7121L12.2652 26.4596C14.746 26.7573 17.2536 26.7573 19.7344 26.4596L25.9638 25.7121C26.1097 25.6946 26.1844 25.528 26.1005 25.4074C24.5541 23.1854 23.647 20.5817 23.478 17.8798L23.1096 11.9907C22.9606 9.60699 20.9838 7.75004 18.5955 7.75004H13.4041ZM15.9998 32.75C14.8492 32.75 13.9165 31.8173 13.9165 30.6667V29.4167H18.0831V30.6667C18.0831 31.8173 17.1504 32.75 15.9998 32.75Z" fill="#111111"/>
<path d="M25.405 1.25795C24.8848 1.71189 24.8312 2.50152 25.2851 3.02165L27.4381 5.4886C28.2737 6.44605 28.7461 7.66681 28.7726 8.93734L28.8671 13.4668C28.8815 14.157 29.4527 14.7048 30.1429 14.6904C30.8331 14.676 31.3809 14.1048 31.3665 13.4146L31.2721 8.88521C31.2333 7.02828 30.5429 5.24409 29.3217 3.84475L27.1687 1.3778C26.7147 0.857671 25.9251 0.804014 25.405 1.25795Z" fill="#111111"/>
</svg>
