<svg width="349" height="27" viewBox="0 0 349 27" fill="none" xmlns="http://www.w3.org/2000/svg">
<path fill-rule="evenodd" clip-rule="evenodd" d="M8.05866 5.08802C5.75255 4.92452 3.44821 4.74533 1.14323 4.55401C0.692863 4.51631 0.364772 4.93763 0.410978 5.49469C0.457183 6.05177 0.860346 6.5347 1.31071 6.57239C3.38533 6.7422 5.45952 6.90395 7.53165 7.05746C7.65715 7.16139 7.90373 7.31674 8.30917 7.42058C20.9336 10.5588 34.0988 9.32516 46.6304 8.88897C58.45 9.16837 70.2527 9.2299 82.0464 9.17448C80.6505 9.27132 79.2548 9.36419 77.8573 9.44883C77.5666 9.46753 76.8137 9.51894 76.7124 9.5459C76.1343 9.71549 76.1844 10.3529 76.2034 10.5151C76.213 10.5962 76.3526 11.4927 77.1652 11.5608C85.8929 12.283 94.4895 11.7584 103.058 11.3219C106.245 11.1589 109.428 10.9873 112.612 10.808C113.719 10.742 116.615 10.7174 117.007 10.6438C117.428 10.5619 117.561 10.2315 117.598 9.97268C124.529 9.79783 131.474 9.68871 138.428 9.64054C139.797 9.70807 141.165 9.77935 142.533 9.85069C157.442 10.6456 172.355 11.5088 187.255 12.2226C179.001 12.28 170.731 12.3752 162.514 12.6689C160.83 12.7289 159.156 12.8461 157.476 12.9224C156.557 12.9605 154.163 12.8816 153.839 12.9999C153.358 13.1818 153.328 13.6573 153.34 13.8945C153.347 14.0392 153.468 14.8495 154.334 15.0922C170.407 19.6105 186.493 21.207 202.507 23.0339C206.719 23.5135 210.933 24.0131 215.146 24.5286C205.176 24.2384 195.036 23.2795 185.029 22.4773C184.928 22.3685 184.788 22.2628 184.594 22.1861C184.31 22.0698 183.449 21.8956 181.891 21.6761C181.555 21.6291 181.278 21.8372 181.167 22.1745C178.791 21.998 176.422 21.8346 174.068 21.6968C166.356 21.2444 158.679 21.1321 150.973 20.7244L149.227 20.6127L148.863 20.5901C147.524 20.4945 145.886 20.3687 144.798 20.2852C144.169 20.2326 142.539 20.1437 142.314 20.1389C141.637 20.1321 141.602 20.9063 141.601 20.9422C141.6 20.9621 141.728 22.1007 142.661 22.1762C143.286 22.2283 145.639 22.3859 148.938 22.6006C149.767 22.6589 150.495 22.7081 150.928 22.7316L151.261 22.7503C161.808 23.4178 178.701 24.4108 183.449 24.3559C199.042 25.5697 215.002 27.2859 230.183 26.3903C230.681 26.3582 230.881 26.1681 230.92 26.1252C231.13 25.8766 231.15 25.5835 231.114 25.3272C231.091 25.1646 230.957 24.5044 230.304 24.321C229.845 24.1903 226.609 23.9517 225.357 23.7953C217.697 22.8383 210.036 21.8934 202.381 21.0209C188.576 19.4449 174.718 18.0497 160.859 14.7813C161.517 14.7458 162.175 14.7144 162.836 14.6911C171.167 14.392 179.553 14.2956 187.922 14.2409C213.908 14.0699 240.864 17.4018 266.599 15.9605C267.127 15.9322 267.344 15.7444 267.386 15.7018C267.61 15.451 267.628 15.1457 267.591 14.8853C267.569 14.7267 267.428 14.0577 266.764 13.8767C266.215 13.7267 262.348 13.4592 260.852 13.2836C254.878 12.5825 248.899 11.8767 242.936 11.3489C233.095 10.4801 223.248 9.76229 213.421 9.21488C212.559 8.93666 211.667 8.67478 210.749 8.42944C217.357 8.62063 223.969 8.88013 230.588 9.23246C257.719 10.6658 284.9 12.6446 312.102 14.8697C323.368 15.7932 334.875 17.5022 346.084 17.8352C346.481 17.8462 347.373 17.9924 347.806 18.0039C348.053 18.0117 348.23 17.9663 348.312 17.929C348.655 17.7651 348.739 17.4444 348.751 17.1904C348.763 16.9922 348.758 16.3406 348.051 15.9385C332.839 7.2889 310.259 8.77479 295.208 7.21888C233.749 0.866619 172.793 -0.233037 112.148 0.715965C87.9009 1.09377 63.7181 1.49969 39.621 2.83925C31.0694 3.31382 22.4884 3.61293 14.0361 4.61939C12.9332 4.75375 10.5796 4.82776 9.08 4.95525C8.67648 4.99144 8.32686 5.0385 8.05866 5.08802ZM343.461 15.7222C328.685 9.45283 308.921 10.6363 295.348 9.23374C233.941 2.88823 173.037 1.78718 112.444 2.7348C88.2142 3.11483 64.0485 3.51905 39.9681 4.86075C33.842 5.19857 27.7005 5.4505 21.6031 5.93577C29.8586 6.36985 38.1034 6.67083 46.3493 6.86803C48.0546 6.80683 49.7497 6.76022 51.4301 6.74375C72.0678 6.53081 92.7557 6.35632 113.506 6.78884C120.344 6.67791 127.18 6.55479 134.023 6.43653C147.209 5.63681 165.201 4.47016 181.916 4.95708C187.666 5.12619 193.266 5.49174 198.471 6.13832C209.097 6.31275 219.73 6.64786 230.381 7.21299C257.525 8.64393 284.719 10.6284 311.936 12.8556C322.38 13.7096 333.028 15.2449 343.461 15.7222ZM213.469 11.2259C207.173 10.879 200.886 10.6051 194.616 10.4053C191.825 10.3196 189.035 10.2379 186.245 10.1641C187.772 10.2399 189.299 10.3116 190.825 10.3793C197.991 10.7098 205.176 11.0547 212.324 11.2152C212.679 11.2207 213.158 11.2581 213.695 11.3029L213.479 11.2312L213.469 11.2259ZM252.352 14.2998C249.265 13.9605 246.178 13.6372 243.097 13.3664C235.098 12.6616 227.095 12.0522 219.102 11.5559C219.309 11.7182 219.426 11.869 219.482 11.964C219.645 12.2325 219.693 12.4902 219.686 12.721C219.682 12.8643 219.657 13.0328 219.575 13.19C230.538 13.7312 241.516 14.3022 252.352 14.2998ZM202.459 8.68192C201.244 8.49033 200.001 8.31516 198.734 8.15686C192.522 8.05641 186.315 8.00444 180.118 7.99379C184.869 8.10684 189.625 8.23653 194.38 8.38623C197.071 8.47115 199.764 8.56843 202.459 8.68192Z" fill="#0BA348"/>
</svg>
