<svg width="20" height="21" viewBox="0 0 20 21" fill="none" xmlns="http://www.w3.org/2000/svg">
<path d="M18.47 0.802386H1.53C1.33958 0.799741 1.1505 0.834633 0.973563 0.90507C0.796628 0.975506 0.635301 1.08011 0.498795 1.2129C0.362289 1.34569 0.253279 1.50407 0.177989 1.679C0.1027 1.85392 0.062606 2.04196 0.0599976 2.23239V19.3724C0.062606 19.5628 0.1027 19.7509 0.177989 19.9258C0.253279 20.1007 0.362289 20.2591 0.498795 20.3919C0.635301 20.5247 0.796628 20.6293 0.973563 20.6997C1.1505 20.7701 1.33958 20.805 1.53 20.8024H18.47C18.6604 20.805 18.8495 20.7701 19.0264 20.6997C19.2034 20.6293 19.3647 20.5247 19.5012 20.3919C19.6377 20.2591 19.7467 20.1007 19.822 19.9258C19.8973 19.7509 19.9374 19.5628 19.94 19.3724V2.23239C19.9374 2.04196 19.8973 1.85392 19.822 1.679C19.7467 1.50407 19.6377 1.34569 19.5012 1.2129C19.3647 1.08011 19.2034 0.975506 19.0264 0.90507C18.8495 0.834633 18.6604 0.799741 18.47 0.802386ZM6.09 17.5424H3.09V8.54239H6.09V17.5424ZM4.59 7.28239C4.17626 7.28239 3.77947 7.11803 3.48691 6.82547C3.19435 6.53292 3.03 6.13612 3.03 5.72239C3.03 5.30865 3.19435 4.91186 3.48691 4.6193C3.77947 4.32674 4.17626 4.16239 4.59 4.16239C4.80969 4.13747 5.03217 4.15924 5.24287 4.22627C5.45357 4.2933 5.64774 4.40408 5.81265 4.55135C5.97757 4.69862 6.10952 4.87906 6.19987 5.08087C6.29021 5.28267 6.33692 5.50128 6.33692 5.72239C6.33692 5.94349 6.29021 6.1621 6.19987 6.3639C6.10952 6.56571 5.97757 6.74615 5.81265 6.89342C5.64774 7.0407 5.45357 7.15147 5.24287 7.2185C5.03217 7.28553 4.80969 7.3073 4.59 7.28239ZM16.91 17.5424H13.91V12.7124C13.91 11.5024 13.48 10.7124 12.39 10.7124C12.0527 10.7149 11.7242 10.8207 11.4488 11.0156C11.1735 11.2105 10.9645 11.4851 10.85 11.8024C10.7717 12.0374 10.7378 12.285 10.75 12.5324V17.5324H7.75C7.75 17.5324 7.75 9.35239 7.75 8.53239H10.75V9.80239C11.0225 9.32949 11.4189 8.93991 11.8964 8.67559C12.374 8.41127 12.9146 8.28224 13.46 8.30239C15.46 8.30239 16.91 9.59239 16.91 12.3624V17.5424Z" fill="#707070"/>
</svg>
