<svg width="67" height="67" viewBox="0 0 67 67" fill="none" xmlns="http://www.w3.org/2000/svg">
<g clip-path="url(#clip0_132_3927)">
<path fill-rule="evenodd" clip-rule="evenodd" d="M15.4388 37.2096C15.1847 36.9603 14.9288 36.7109 14.6711 36.4633C12.0432 33.9443 9.43574 31.4225 6.98931 28.7211C6.39655 28.0669 5.2836 26.7977 4.16601 26.1444C3.36666 25.6773 2.53936 25.4819 1.78282 25.5787C1.30079 25.6401 0.596393 25.883 0.242782 26.807C0.183226 26.9624 0.11252 27.2294 0.0846034 27.57C0.0399367 28.1209 0.0836515 29.1092 0.0976098 29.246C0.293026 31.2392 0.488436 33.145 0.8467 35.1169C1.17612 36.9314 1.4013 38.76 1.75584 40.5718C2.28626 43.2825 2.96931 45.8917 3.965 48.4731C4.33443 49.4316 5.41295 49.9089 6.37142 49.5395C7.32896 49.1701 7.80726 48.0925 7.43783 47.1341C6.52124 44.7565 5.89684 42.3538 5.40923 39.8571C5.05748 38.0621 4.83506 36.2493 4.50843 34.4515C4.29627 33.2818 4.1455 32.1363 4.01709 30.9805L4.23019 31.2196C6.73617 33.9862 9.4041 36.5704 12.0953 39.1499C13.1021 40.1158 14.0746 41.1096 15.0973 42.0597C15.1801 42.1807 15.5625 42.7353 15.7505 42.9251C16.0631 43.2415 16.4009 43.4183 16.695 43.5058C17.4422 43.7291 18.2007 43.6463 18.8632 42.8088C19.3592 42.1816 19.6448 41.2092 19.6234 40.0478C19.5946 38.4519 18.9888 36.348 18.8604 35.3784C18.0471 29.2432 16.7313 23.1322 16.3814 16.944C16.3237 15.9186 15.4443 15.1332 14.4189 15.1909C13.3934 15.2495 12.6071 16.1288 12.6657 17.1543C13.0202 23.4356 14.3444 29.6396 15.1698 35.8678C15.2145 36.1991 15.3206 36.6709 15.4388 37.2096Z" fill="#0BA348"/>
<path fill-rule="evenodd" clip-rule="evenodd" d="M31.7007 11.7782C29.5902 12.3375 27.476 12.8251 25.7805 14.2749C24.0069 15.7926 23.1052 17.9971 22.7842 20.4538C22.3747 23.5879 22.9237 27.1435 23.2643 29.6774C23.4411 30.9895 23.5165 32.8181 23.899 34.4382C24.2284 35.8312 24.7895 37.0791 25.6447 37.9529C26.9884 39.3254 29.0505 39.4641 31.1656 38.608C33.6093 37.6188 36.0427 35.3361 36.7043 34.0054C37.1622 33.0861 36.7871 31.9676 35.8668 31.5107C34.9474 31.0528 33.8299 31.4278 33.372 32.3472C32.9523 33.1912 31.3192 34.5303 29.7689 35.1584C29.4227 35.298 29.0803 35.4022 28.7564 35.4283C28.588 35.4422 28.4196 35.4664 28.3051 35.3501C27.744 34.776 27.5467 33.8426 27.3839 32.9C27.1559 31.586 27.0926 30.2134 26.9539 29.1805C26.6487 26.9146 26.109 23.7386 26.4748 20.9358C26.6711 19.433 27.115 18.0325 28.2009 17.1038C29.4609 16.0262 31.0837 15.7926 32.6536 15.3767C33.6465 15.1143 34.2393 14.0944 33.9759 13.1015C33.7135 12.1086 32.6936 11.5158 31.7007 11.7782Z" fill="#0BA348"/>
<path fill-rule="evenodd" clip-rule="evenodd" d="M31.558 21.585C29.9231 22.4755 28.1755 23.3912 26.4232 24.0202C25.4564 24.3673 24.953 25.4338 25.2991 26.4006C25.6462 27.3675 26.7126 27.8709 27.6795 27.5238C29.6094 26.8314 31.5385 25.8348 33.3382 24.855C34.2399 24.3636 34.5739 23.2321 34.0826 22.3303C33.5913 21.4277 32.4607 21.0946 31.558 21.585Z" fill="#0BA348"/>
<path fill-rule="evenodd" clip-rule="evenodd" d="M54.035 22.5729C52.6764 20.9296 51.2405 19.3123 49.7237 17.8346C49.6 17.7145 48.0702 16.4545 47.161 15.9837C46.5478 15.6663 46.0043 15.6087 45.6861 15.6394C44.7602 15.7287 44.1953 16.2303 43.9636 17.0882C43.7421 17.9109 43.6621 18.7679 43.6621 19.6426C42.2858 17.0622 41.0268 14.4083 40.2619 11.6138C40.1986 11.383 40.1474 11.2751 40.139 11.2555C39.8813 10.686 39.5155 10.4924 39.3853 10.4161C38.745 10.0402 38.1681 10.1035 37.6814 10.3222C37.6219 10.3482 36.3098 10.9308 36.6234 12.4187C36.6485 12.5388 36.8626 13.3939 36.9249 13.728C36.9798 14.0183 37.0989 14.2798 37.2655 14.5013C38.5478 18.1844 40.5094 21.6638 42.3919 25.0612C42.7986 25.7955 43.1159 26.552 43.3253 27.3643C43.3867 27.6016 43.4118 28.1386 43.4658 28.4019C43.5579 28.8476 43.7403 29.1463 43.8566 29.299C44.4614 30.0936 45.2068 30.1746 45.8945 29.9709C46.1886 29.8843 46.7776 29.6861 47.1358 28.8328C47.9417 26.9158 47.8505 24.7988 47.617 22.666C47.5481 22.035 47.4625 21.4041 47.4104 20.7807C49.0659 22.4259 50.6152 24.2404 52.0715 26.0541C52.2316 26.2532 53.8526 28.066 54.2835 28.3358C55.3611 29.0133 56.1976 28.5043 56.5559 28.2009C57.1021 27.7375 57.5321 26.9419 57.707 25.9285C57.9322 24.6174 57.7544 22.813 57.7368 22.0871C57.6186 17.2017 57.4417 12.0949 56.3446 7.32486C56.1148 6.32358 55.1154 5.69821 54.1141 5.92806C53.1128 6.1579 52.4875 7.15828 52.7174 8.15863C53.7587 12.6886 53.9029 17.5396 54.0154 22.1775C54.0182 22.2845 54.0257 22.4185 54.035 22.5729Z" fill="#0BA348"/>
<path fill-rule="evenodd" clip-rule="evenodd" d="M61.4717 6.08726C62.1463 9.34886 62.8219 12.5807 63.263 15.9344C63.397 16.9533 64.3322 17.6717 65.3511 17.5377C66.3692 17.4037 67.0876 16.4685 66.9536 15.4496C66.332 10.7195 65.2563 6.22871 64.3555 1.5629C64.0084 -0.240516 62.2943 0.0116897 62.1892 0.0303008C61.9574 0.0712452 60.6947 0.340173 60.6528 1.81883C60.65 1.90909 60.7105 2.5474 60.7207 2.79493C60.7431 3.36164 60.7319 3.91535 60.703 4.48298C60.6695 5.13716 60.9776 5.72993 61.4717 6.08726Z" fill="#0BA348"/>
<path fill-rule="evenodd" clip-rule="evenodd" d="M66.2884 25.3207C66.4773 24.7456 66.3814 24.0887 65.9757 23.5797C65.3346 22.7766 64.163 22.6454 63.3599 23.2866C62.6182 23.8784 62.4796 24.5996 62.5792 25.4817C62.6945 26.5026 63.6177 27.2377 64.6385 27.1213C65.5718 27.0162 66.266 26.2345 66.2884 25.3207Z" fill="#0BA348"/>
<path fill-rule="evenodd" clip-rule="evenodd" d="M31.1552 61.2216C30.9654 60.8196 30.8128 60.5023 30.7765 60.4343C29.0475 57.2007 27.1715 54.0098 25.1289 50.9641C24.5567 50.1107 23.4 49.8828 22.5467 50.4551C21.6934 51.0273 21.4654 52.1841 22.0377 53.0374C24.0114 55.9798 25.8231 59.0646 27.4944 62.1894C27.6219 62.4276 28.4715 64.5446 29.0782 65.4277C29.6282 66.2271 30.3187 66.5127 30.7142 66.5714C31.3423 66.6644 32.325 66.4392 33.1224 65.3747C34.1637 63.9853 35.5139 60.2734 35.7363 59.6574C36.1439 58.5239 36.4892 57.3347 36.8093 56.178C37.416 53.9837 37.765 51.7504 38.0767 49.5003C38.2181 48.4823 37.5063 47.5424 36.4883 47.401C35.4712 47.2605 34.5304 47.9724 34.3899 48.9895C34.1005 51.0767 33.785 53.15 33.222 55.1851C32.9261 56.2524 32.6097 57.3514 32.2337 58.3974C32.1202 58.711 31.6791 60.0063 31.1552 61.2216Z" fill="#0BA348"/>
</g>
<defs>
<clipPath id="clip0_132_3927">
<rect width="67" height="67" fill="white"/>
</clipPath>
</defs>
</svg>
