<svg width="35" height="35" viewBox="0 0 35 35" fill="none" xmlns="http://www.w3.org/2000/svg">
<path d="M27.0516 24.6949L34.19 31.8316L31.8316 34.1899L24.695 27.0516C22.0395 29.1803 18.7366 30.3381 15.3333 30.3333C7.05331 30.3333 0.333313 23.6133 0.333313 15.3333C0.333313 7.05325 7.05331 0.333252 15.3333 0.333252C23.6133 0.333252 30.3333 7.05325 30.3333 15.3333C30.3382 18.7366 29.1803 22.0395 27.0516 24.6949ZM23.7083 23.4583C25.8235 21.2831 27.0048 18.3673 27 15.3333C27 8.88659 21.7783 3.66659 15.3333 3.66659C8.88665 3.66659 3.66665 8.88659 3.66665 15.3333C3.66665 21.7783 8.88665 26.9999 15.3333 26.9999C18.3674 27.0047 21.2831 25.8234 23.4583 23.7083L23.7083 23.4583Z" fill="#111111"/>
</svg>
