<svg width="146" height="18" viewBox="0 0 146 18" fill="none" xmlns="http://www.w3.org/2000/svg">
<path fill-rule="evenodd" clip-rule="evenodd" d="M3.31855 9.17469C2.33127 9.13127 1.33997 9.07708 0.344758 9.01462C0.150209 9.00219 0.143891 9.29992 0.330771 9.67934C0.517652 10.0588 0.827343 10.3769 1.02189 10.3894C1.91692 10.4439 2.80935 10.493 3.69844 10.5365C3.78085 10.6039 3.92802 10.7028 4.12425 10.7617C10.2058 12.5328 15.1881 11.2993 20.1534 10.6297C25.045 10.4703 29.864 10.1626 34.644 9.77514C34.1055 9.88271 33.5658 9.98756 33.023 10.0868C32.9104 10.1082 32.6197 10.1657 32.5867 10.1871C32.4027 10.3202 32.6154 10.7544 32.6721 10.8647C32.7004 10.9199 33.0277 11.5286 33.3788 11.5511C37.1464 11.786 40.4846 11.1726 43.8377 10.6203C45.0848 10.4144 46.3277 10.2028 47.5687 9.9858C47.9989 9.90792 49.1692 9.80526 49.3065 9.74332C49.4531 9.67489 49.4074 9.44508 49.3444 9.26705C52.1107 8.94211 54.9026 8.66166 57.7161 8.42264C58.2935 8.42821 58.8713 8.4364 59.4493 8.44462C65.7531 8.54607 72.0789 8.69415 78.3546 8.74047C75.0147 9.02431 71.6796 9.33451 68.4263 9.77886C67.7598 9.86979 67.1142 9.99947 66.4536 10.1015C66.0915 10.1547 65.094 10.1717 64.998 10.2622C64.857 10.4008 64.9884 10.7268 65.0647 10.8885C65.1114 10.9872 65.4051 11.5375 65.8308 11.6778C73.7311 14.29 80.7553 14.9045 87.8197 15.6787C89.6778 15.8817 91.5423 16.0983 93.4116 16.3258C89.2687 16.4229 84.8553 16.068 80.5432 15.8163C80.4693 15.7449 80.3803 15.6767 80.2786 15.6301C80.1279 15.559 79.7252 15.4655 79.0252 15.3616C78.8745 15.3394 78.8243 15.4899 78.8813 15.7237C77.8615 15.6735 76.8489 15.632 75.8495 15.6076C72.5764 15.527 69.4203 15.6777 66.163 15.6274L65.4191 15.6028L65.2642 15.5981C64.691 15.5725 63.9867 15.535 63.5188 15.5102C63.2473 15.4929 62.5573 15.4804 62.4645 15.4838C62.1871 15.4992 62.4064 16.0295 62.4168 16.054C62.4226 16.0677 62.8182 16.8422 63.2204 16.8662C63.4902 16.8833 64.495 16.9212 65.9015 16.9703C66.2564 16.9855 66.5671 16.9976 66.7503 17.0008L66.8915 17.0037C71.3825 17.1474 78.5528 17.3255 80.4676 17.1472C87.1758 17.5148 94.1849 18.2149 100.089 17.1527C100.282 17.116 100.306 16.9802 100.309 16.9497C100.319 16.7735 100.239 16.5725 100.147 16.3985C100.089 16.288 99.8349 15.8407 99.514 15.7346C99.2878 15.6589 97.8997 15.5917 97.3432 15.5219C93.9388 15.0948 90.5382 14.6759 87.1612 14.3064C81.0709 13.6383 75.0135 13.0953 68.3905 11.2719C68.6475 11.2281 68.9059 11.1871 69.1673 11.1516C72.4656 10.7002 75.8476 10.3858 79.2345 10.1004C89.7523 9.21325 101.721 10.6919 111.753 8.9439C111.959 8.90891 111.991 8.77411 111.995 8.74374C112.011 8.56564 111.926 8.35641 111.832 8.17955C111.775 8.07178 111.516 7.61865 111.191 7.51464C110.923 7.42829 109.27 7.3601 108.608 7.2844C105.967 6.98221 103.322 6.67698 100.738 6.49289C96.4728 6.19068 92.2512 5.99188 88.0893 5.90894C87.6545 5.74433 87.2129 5.59174 86.7655 5.45124C89.5109 5.38607 92.2783 5.36749 95.0767 5.41215C106.544 5.58776 118.196 6.13482 129.931 6.84963C134.792 7.14695 139.988 7.97417 144.647 7.86958C144.812 7.86528 145.219 7.9388 145.398 7.93384C145.501 7.93179 145.56 7.89556 145.582 7.86758C145.672 7.74544 145.609 7.52369 145.537 7.34969C145.483 7.21389 145.284 6.7686 144.875 6.5147C136.078 1.05298 127.343 2.73792 120.752 2.12045C93.8379 -0.400161 68.7141 0.654813 44.3348 3.10098C34.5869 4.07789 24.8737 5.07212 15.4771 6.70202C12.1422 7.27987 8.74237 7.73867 5.60829 8.67718C5.20027 8.80171 4.26533 8.92206 3.69389 9.05365C3.54069 9.09035 3.41269 9.13288 3.31855 9.17469ZM142.943 6.50289C135.041 2.65529 127.36 4.05007 121.416 3.49361C94.5263 0.97604 69.423 2.02853 45.0643 4.47222C35.3242 5.45014 25.6174 6.4427 16.2282 8.07356C13.8385 8.48606 11.4167 8.84029 9.08315 9.35273C12.5718 9.40477 16.016 9.36614 19.4293 9.25655C20.1044 9.16417 20.7798 9.08206 21.4583 9.021C29.7878 8.26376 38.1494 7.53132 46.7196 7.21195C49.4671 6.93347 52.2105 6.64668 54.9579 6.36302C60.0796 5.42555 67.0455 4.09478 73.9909 3.9322C76.3804 3.87739 78.7682 3.9613 81.0804 4.249C85.4548 4.05331 89.8805 3.96723 94.3831 4.03784C105.855 4.21147 117.514 4.76201 129.256 5.47773C133.761 5.75197 138.556 6.48586 142.943 6.50289ZM88.7155 7.28221C86.0501 7.23167 83.4105 7.23081 80.7998 7.28004C79.6391 7.30415 78.4795 7.331 77.3223 7.3633C77.9664 7.36981 78.6091 7.37361 79.2504 7.37462C82.2647 7.38816 85.2909 7.41095 88.2467 7.30879C88.3928 7.30204 88.5988 7.3134 88.8307 7.3281L88.7214 7.28555L88.7155 7.28221ZM105.458 8.23099C104.1 8.0905 102.747 7.96099 101.412 7.86721C97.9456 7.62253 94.5069 7.44315 91.1063 7.3408C91.2394 7.4456 91.3323 7.54522 91.3838 7.60852C91.5312 7.78724 91.6286 7.96198 91.6954 8.11992C91.737 8.21797 91.7773 8.33392 91.7915 8.44386C96.4136 8.48882 101.051 8.55376 105.458 8.23099ZM83.47 5.86952C82.9178 5.77459 82.3595 5.69168 81.7963 5.62104C79.2396 5.73647 76.6992 5.88493 74.1758 6.0613C76.142 5.99778 78.1155 5.94548 80.095 5.90685C81.2149 5.88515 82.3395 5.87184 83.47 5.86952Z" fill="#0BA348"/>
</svg>
