<svg width="16" height="20" viewBox="0 0 16 20" fill="none" xmlns="http://www.w3.org/2000/svg">
<path d="M11.07 0.465332C13.78 0.465332 15.97 1.50583 16 4.15085V18.9124C16 19.0777 15.96 19.243 15.88 19.3889C15.75 19.6223 15.53 19.7973 15.26 19.8751C15 19.9529 14.71 19.914 14.47 19.7778L7.99 16.6272L1.5 19.7778C1.351 19.8547 1.18 19.9043 1.01 19.9043C0.45 19.9043 0 19.4569 0 18.9124V4.15085C0 1.50583 2.2 0.465332 4.9 0.465332H11.07ZM11.75 6.33882H4.22C3.79 6.33882 3.44 6.67918 3.44 7.10705C3.44 7.53394 3.79 7.87527 4.22 7.87527H11.75C12.18 7.87527 12.53 7.53394 12.53 7.10705C12.53 6.67918 12.18 6.33882 11.75 6.33882Z" fill="#111111"/>
</svg>
