<svg width="16" height="17" viewBox="0 0 16 17" fill="none" xmlns="http://www.w3.org/2000/svg">
<path fill-rule="evenodd" clip-rule="evenodd" d="M8 0.938232C12.4112 0.938232 16 4.52703 16 8.93823C16 13.3494 12.4112 16.9382 8 16.9382C3.5888 16.9382 0 13.3494 0 8.93823C0 4.52703 3.5888 0.938232 8 0.938232ZM8 2.13823C4.2504 2.13823 1.2 5.18863 1.2 8.93823C1.2 12.6878 4.2504 15.7382 8 15.7382C11.7496 15.7382 14.8 12.6878 14.8 8.93823C14.8 5.18863 11.7496 2.13823 8 2.13823ZM7.72896 5.01455C8.06096 5.01455 8.32896 5.28335 8.32896 5.61455V9.15215L11.053 10.7762C11.337 10.9466 11.4306 11.3146 11.261 11.5994C11.1482 11.7874 10.949 11.8922 10.745 11.8922C10.6402 11.8922 10.5346 11.865 10.4378 11.8082L7.42176 10.009C7.24096 9.90015 7.12896 9.70415 7.12896 9.49295V5.61455C7.12896 5.28335 7.39776 5.01455 7.72896 5.01455Z" fill="#505050"/>
</svg>
