<svg width="20" height="17" viewBox="0 0 20 17" fill="none" xmlns="http://www.w3.org/2000/svg">
<path d="M20 2.60246C19.2483 2.92855 18.4534 3.14412 17.64 3.24246C18.4982 2.72978 19.1413 1.92324 19.45 0.972456C18.6436 1.45252 17.7608 1.79075 16.84 1.97246C16.2245 1.30503 15.405 0.860752 14.5098 0.709307C13.6147 0.557862 12.6945 0.707814 11.8938 1.13565C11.093 1.56348 10.4569 2.24499 10.0852 3.07329C9.71355 3.9016 9.62729 4.82985 9.84 5.71246C8.20943 5.62998 6.61444 5.20541 5.15865 4.46632C3.70287 3.72723 2.41885 2.69015 1.39 1.42246C1.02914 2.05262 0.839519 2.76628 0.84 3.49246C0.83872 4.16684 1.00422 4.83107 1.32176 5.42602C1.63929 6.02097 2.09902 6.52817 2.66 6.90246C2.00798 6.88472 1.36989 6.70975 0.8 6.39246V6.44246C0.804887 7.38735 1.13599 8.30155 1.73731 9.03042C2.33864 9.75929 3.17326 10.2581 4.1 10.4425C3.74326 10.551 3.37287 10.6083 3 10.6125C2.74189 10.6094 2.48442 10.586 2.23 10.5425C2.49391 11.3553 3.00462 12.0656 3.69107 12.5746C4.37753 13.0836 5.20558 13.366 6.06 13.3825C4.6172 14.5177 2.83588 15.1373 1 15.1425C0.665735 15.1436 0.331736 15.1235 0 15.0825C1.87443 16.2927 4.05881 16.9352 6.29 16.9325C7.82969 16.9484 9.35714 16.6575 10.7831 16.0765C12.2091 15.4956 13.505 14.6363 14.5952 13.549C15.6854 12.4616 16.548 11.1678 17.1326 9.74336C17.7172 8.31888 18.012 6.79218 18 5.25246C18 5.08246 18 4.90246 18 4.72246C18.7847 4.13727 19.4615 3.41988 20 2.60246Z" fill="#707070"/>
</svg>
