<svg width="40" height="40" viewBox="0 0 40 40" fill="none" xmlns="http://www.w3.org/2000/svg">
<path fill-rule="evenodd" clip-rule="evenodd" d="M6.25 13.3334C6.25 8.96116 9.79441 5.41675 14.1667 5.41675H30.8333C32.4442 5.41675 33.75 6.72258 33.75 8.33341V33.3334C33.75 34.9442 32.4442 36.2501 30.8333 36.2501H12.5C9.04822 36.2501 6.25 33.4519 6.25 30.0001V13.3334ZM31.25 8.33341V23.7501H12.5C11.093 23.7501 9.79458 24.215 8.75 24.9996V13.3334C8.75 10.3419 11.1751 7.91675 14.1667 7.91675H19.5132C19.0744 11.2193 19.1138 14.5706 19.6324 17.8668L19.7364 18.5277C19.8109 19.0011 20.1494 19.3902 20.6079 19.5295C21.0665 19.6687 21.5642 19.5336 21.8894 19.1816L24.1667 16.7163L26.444 19.1816C26.7691 19.5336 27.2669 19.6687 27.7254 19.5295C28.1839 19.3902 28.5225 19.0011 28.597 18.5277L28.701 17.8668C29.2196 14.5706 29.259 11.2193 28.8202 7.91675H30.8333C31.0635 7.91675 31.25 8.1033 31.25 8.33341ZM26.2965 7.91675H22.0369C21.675 10.4404 21.6147 12.9971 21.8565 15.5329L22.9424 14.3573C23.6023 13.6429 24.7311 13.6429 25.3909 14.3573L26.4769 15.5329C26.7187 12.9971 26.6584 10.4404 26.2965 7.91675ZM12.5 26.2501H31.25V33.3334C31.25 33.5635 31.0635 33.7501 30.8333 33.7501H12.5C10.4289 33.7501 8.75 32.0711 8.75 30.0001C8.75 27.929 10.4289 26.2501 12.5 26.2501Z" fill="#111111"/>
</svg>
